<?xml version="1.0" encoding="UTF-8" standalone="no"?><!-- Generator: Gravit.io --><svg xmlns="http://www.w3.org/2000/svg" xmlns:xlink="http://www.w3.org/1999/xlink" style="isolation:isolate" viewBox="0 0 50 40" width="50pt" height="40pt"><defs><clipPath id="_clipPath_q8FttRpi4XTApmv6XOjmeO1qg0OwUiFX"><rect width="50" height="40"/></clipPath></defs><g clip-path="url(#_clipPath_q8FttRpi4XTApmv6XOjmeO1qg0OwUiFX)"><g><g><linearGradient id="_lgradient_0" x1="0.5000209450852807" y1="-0.02563424398557522" x2="0.5000209450852805" y2="1.0088075788546997" gradientTransform="matrix(0,38.463,-50,0,50,0)" gradientUnits="userSpaceOnUse"><stop offset="0%" stop-opacity="1" style="stop-color:rgb(26,109,255)"/><stop offset="100%" stop-opacity="1" style="stop-color:rgb(200,34,255)"/></linearGradient><path d=" M 0 14.214 L 0 1.931 C -0.002 1.151 0.467 0.447 1.188 0.149 C 1.908 -0.15 2.738 0.015 3.288 0.568 L 24.318 21.64 C 24.499 21.821 24.745 21.923 25.001 21.923 C 25.257 21.923 25.502 21.821 25.683 21.639 L 46.712 0.569 C 47.261 0.015 48.092 -0.152 48.813 0.147 C 49.534 0.445 50.003 1.151 50 1.931 L 50 14.214 C 50 14.975 49.692 15.718 49.156 16.256 L 28.4 37.052 C 27.492 37.961 26.285 38.463 25 38.463 C 23.715 38.463 22.508 37.962 21.6 37.052 L 0.844 16.256 C 0.305 15.713 0.002 14.979 0 14.214 Z  M 48.077 1.931 C 48.077 1.928 48.077 1.924 48.076 1.921 L 27.043 22.998 C 25.915 24.124 24.087 24.125 22.958 22.999 L 1.927 1.927 L 1.923 14.214 C 1.923 14.469 2.026 14.718 2.206 14.899 L 22.962 35.694 C 23.506 36.239 24.23 36.54 25 36.54 C 25.77 36.54 26.494 36.239 27.038 35.694 L 47.794 14.899 C 47.975 14.716 48.076 14.471 48.077 14.214 L 48.077 1.931 Z " fill="url(#_lgradient_0)"/><linearGradient id="_lgradient_1" x1="0.5000121152933161" y1="-0.03788636363636361" x2="0.5000121152933159" y2="1.047590909090909" gradientTransform="matrix(0,25.392,-42.308,0,46.154,6.905)" gradientUnits="userSpaceOnUse"><stop offset="0%" stop-opacity="1" style="stop-color:rgb(109,199,255)"/><stop offset="100%" stop-opacity="1" style="stop-color:rgb(230,171,255)"/></linearGradient><path d=" M 22.962 31.454 L 4.126 12.608 C 3.947 12.429 3.846 12.186 3.846 11.932 L 3.846 6.905 L 23.64 26.69 C 24.001 27.051 24.49 27.254 25 27.254 C 25.511 27.254 26 27.051 26.361 26.69 L 46.154 6.905 L 46.154 11.929 C 46.154 12.184 46.053 12.429 45.872 12.61 L 27.038 31.454 C 25.912 32.578 24.088 32.578 22.962 31.454 Z " fill="url(#_lgradient_1)"/></g></g></g></svg>